<mxfile host="app.diagrams.net" modified="2024-03-09T16:44:00.798Z" agent="Mozilla/5.0 (Macintosh; Intel Mac OS X 10_15_7) AppleWebKit/537.36 (KHTML, like Gecko) Chrome/122.0.0.0 Safari/537.36" etag="JI3SW1t3eDN8w9Vl6dTF" version="24.0.4" type="device">
  <diagram name="employee" id="6TUgTd9j0N-Ey9y_NfMO">
    <mxGraphModel dx="1420" dy="1209" grid="1" gridSize="10" guides="1" tooltips="1" connect="1" arrows="1" fold="1" page="0" pageScale="1" pageWidth="850" pageHeight="1100" math="0" shadow="0">
      <root>
        <mxCell id="0" />
        <mxCell id="1" parent="0" />
        <mxCell id="Q0QQ5eIorKA2mjUOSCse-21" value="" style="edgeStyle=orthogonalEdgeStyle;rounded=0;orthogonalLoop=1;jettySize=auto;html=1;startArrow=diamondThin;startFill=1;endArrow=open;endFill=0;" edge="1" parent="1" source="Q0QQ5eIorKA2mjUOSCse-1" target="Q0QQ5eIorKA2mjUOSCse-6">
          <mxGeometry relative="1" as="geometry" />
        </mxCell>
        <mxCell id="Q0QQ5eIorKA2mjUOSCse-88" style="edgeStyle=orthogonalEdgeStyle;rounded=0;orthogonalLoop=1;jettySize=auto;html=1;entryX=1;entryY=0.75;entryDx=0;entryDy=0;startArrow=diamondThin;startFill=1;endArrow=open;endFill=0;" edge="1" parent="1" source="Q0QQ5eIorKA2mjUOSCse-1" target="Q0QQ5eIorKA2mjUOSCse-53">
          <mxGeometry relative="1" as="geometry" />
        </mxCell>
        <mxCell id="Q0QQ5eIorKA2mjUOSCse-127" style="edgeStyle=orthogonalEdgeStyle;rounded=0;orthogonalLoop=1;jettySize=auto;html=1;entryX=0;entryY=0.5;entryDx=0;entryDy=0;startArrow=diamondThin;startFill=1;endArrow=open;endFill=0;" edge="1" parent="1" source="Q0QQ5eIorKA2mjUOSCse-1" target="Q0QQ5eIorKA2mjUOSCse-100">
          <mxGeometry relative="1" as="geometry" />
        </mxCell>
        <mxCell id="Q0QQ5eIorKA2mjUOSCse-1" value="Employee" style="swimlane;fontStyle=0;childLayout=stackLayout;horizontal=1;startSize=26;fillColor=none;horizontalStack=0;resizeParent=1;resizeParentMax=0;resizeLast=0;collapsible=1;marginBottom=0;whiteSpace=wrap;html=1;" vertex="1" parent="1">
          <mxGeometry x="230" y="60" width="140" height="52" as="geometry">
            <mxRectangle x="270" y="90" width="90" height="30" as="alternateBounds" />
          </mxGeometry>
        </mxCell>
        <mxCell id="Q0QQ5eIorKA2mjUOSCse-6" value="&lt;p style=&quot;margin:0px;margin-top:4px;text-align:center;&quot;&gt;&lt;i&gt;&amp;lt;&amp;lt;Interface&amp;gt;&amp;gt;&lt;/i&gt;&lt;br&gt;&lt;b&gt;PaymentClassification&lt;/b&gt;&lt;/p&gt;&lt;hr size=&quot;1&quot; style=&quot;border-style:solid;&quot;&gt;&lt;p style=&quot;margin:0px;margin-left:4px;&quot;&gt;+ calculatePay(Type): void&lt;br&gt;&lt;/p&gt;&lt;p style=&quot;margin:0px;margin-left:4px;&quot;&gt;&lt;br&gt;&lt;/p&gt;" style="verticalAlign=top;align=left;overflow=fill;html=1;whiteSpace=wrap;" vertex="1" parent="1">
          <mxGeometry x="200" y="220" width="190" height="70" as="geometry" />
        </mxCell>
        <mxCell id="Q0QQ5eIorKA2mjUOSCse-18" style="edgeStyle=orthogonalEdgeStyle;rounded=0;orthogonalLoop=1;jettySize=auto;html=1;entryX=0;entryY=1;entryDx=0;entryDy=0;endArrow=block;endFill=0;" edge="1" parent="1" source="Q0QQ5eIorKA2mjUOSCse-7" target="Q0QQ5eIorKA2mjUOSCse-6">
          <mxGeometry relative="1" as="geometry" />
        </mxCell>
        <mxCell id="Q0QQ5eIorKA2mjUOSCse-7" value="SalariedClassification" style="swimlane;fontStyle=1;align=center;verticalAlign=top;childLayout=stackLayout;horizontal=1;startSize=26;horizontalStack=0;resizeParent=1;resizeParentMax=0;resizeLast=0;collapsible=1;marginBottom=0;whiteSpace=wrap;html=1;" vertex="1" parent="1">
          <mxGeometry x="50" y="400" width="160" height="52" as="geometry" />
        </mxCell>
        <mxCell id="Q0QQ5eIorKA2mjUOSCse-8" value="+ salary: number" style="text;strokeColor=none;fillColor=none;align=left;verticalAlign=top;spacingLeft=4;spacingRight=4;overflow=hidden;rotatable=0;points=[[0,0.5],[1,0.5]];portConstraint=eastwest;whiteSpace=wrap;html=1;" vertex="1" parent="Q0QQ5eIorKA2mjUOSCse-7">
          <mxGeometry y="26" width="160" height="26" as="geometry" />
        </mxCell>
        <mxCell id="Q0QQ5eIorKA2mjUOSCse-19" value="" style="edgeStyle=orthogonalEdgeStyle;rounded=0;orthogonalLoop=1;jettySize=auto;html=1;endArrow=block;endFill=0;" edge="1" parent="1" source="Q0QQ5eIorKA2mjUOSCse-12" target="Q0QQ5eIorKA2mjUOSCse-6">
          <mxGeometry relative="1" as="geometry" />
        </mxCell>
        <mxCell id="Q0QQ5eIorKA2mjUOSCse-118" style="edgeStyle=orthogonalEdgeStyle;rounded=0;orthogonalLoop=1;jettySize=auto;html=1;entryX=0.5;entryY=0;entryDx=0;entryDy=0;startArrow=diamondThin;startFill=1;endArrow=openThin;endFill=0;" edge="1" parent="1" source="Q0QQ5eIorKA2mjUOSCse-12" target="Q0QQ5eIorKA2mjUOSCse-113">
          <mxGeometry relative="1" as="geometry" />
        </mxCell>
        <mxCell id="Q0QQ5eIorKA2mjUOSCse-12" value="HourlyClassification" style="swimlane;fontStyle=1;align=center;verticalAlign=top;childLayout=stackLayout;horizontal=1;startSize=26;horizontalStack=0;resizeParent=1;resizeParentMax=0;resizeLast=0;collapsible=1;marginBottom=0;whiteSpace=wrap;html=1;" vertex="1" parent="1">
          <mxGeometry x="240" y="400" width="160" height="50" as="geometry" />
        </mxCell>
        <mxCell id="Q0QQ5eIorKA2mjUOSCse-13" value="+ hourlyRate: number" style="text;strokeColor=none;fillColor=none;align=left;verticalAlign=top;spacingLeft=4;spacingRight=4;overflow=hidden;rotatable=0;points=[[0,0.5],[1,0.5]];portConstraint=eastwest;whiteSpace=wrap;html=1;" vertex="1" parent="Q0QQ5eIorKA2mjUOSCse-12">
          <mxGeometry y="26" width="160" height="24" as="geometry" />
        </mxCell>
        <mxCell id="Q0QQ5eIorKA2mjUOSCse-20" style="edgeStyle=orthogonalEdgeStyle;rounded=0;orthogonalLoop=1;jettySize=auto;html=1;entryX=1;entryY=0.75;entryDx=0;entryDy=0;endArrow=block;endFill=0;" edge="1" parent="1" source="Q0QQ5eIorKA2mjUOSCse-15" target="Q0QQ5eIorKA2mjUOSCse-6">
          <mxGeometry relative="1" as="geometry" />
        </mxCell>
        <mxCell id="Q0QQ5eIorKA2mjUOSCse-15" value="CommissionedClassification" style="swimlane;fontStyle=1;align=center;verticalAlign=top;childLayout=stackLayout;horizontal=1;startSize=26;horizontalStack=0;resizeParent=1;resizeParentMax=0;resizeLast=0;collapsible=1;marginBottom=0;whiteSpace=wrap;html=1;" vertex="1" parent="1">
          <mxGeometry x="425" y="400" width="190" height="80" as="geometry" />
        </mxCell>
        <mxCell id="Q0QQ5eIorKA2mjUOSCse-16" value="+ salary: number&lt;div&gt;+ commissionRate: number&lt;br&gt;&lt;/div&gt;" style="text;strokeColor=none;fillColor=none;align=left;verticalAlign=top;spacingLeft=4;spacingRight=4;overflow=hidden;rotatable=0;points=[[0,0.5],[1,0.5]];portConstraint=eastwest;whiteSpace=wrap;html=1;" vertex="1" parent="Q0QQ5eIorKA2mjUOSCse-15">
          <mxGeometry y="26" width="190" height="54" as="geometry" />
        </mxCell>
        <mxCell id="Q0QQ5eIorKA2mjUOSCse-53" value="«interface»&lt;br&gt;&lt;b&gt;PaymentMethod&lt;/b&gt;" style="html=1;whiteSpace=wrap;" vertex="1" parent="1">
          <mxGeometry y="50" width="110" height="50" as="geometry" />
        </mxCell>
        <mxCell id="Q0QQ5eIorKA2mjUOSCse-58" style="edgeStyle=orthogonalEdgeStyle;rounded=0;orthogonalLoop=1;jettySize=auto;html=1;entryX=0.5;entryY=1;entryDx=0;entryDy=0;endArrow=block;endFill=0;" edge="1" parent="1" source="Q0QQ5eIorKA2mjUOSCse-54" target="Q0QQ5eIorKA2mjUOSCse-53">
          <mxGeometry relative="1" as="geometry" />
        </mxCell>
        <mxCell id="Q0QQ5eIorKA2mjUOSCse-54" value="DirectMethod" style="swimlane;fontStyle=0;childLayout=stackLayout;horizontal=1;startSize=20;fillColor=none;horizontalStack=0;resizeParent=1;resizeParentMax=0;resizeLast=0;collapsible=1;marginBottom=0;whiteSpace=wrap;html=1;" vertex="1" parent="1">
          <mxGeometry x="-170" y="200" width="140" height="60" as="geometry" />
        </mxCell>
        <mxCell id="Q0QQ5eIorKA2mjUOSCse-81" value="+ bank: attribute&lt;div&gt;+ account&lt;/div&gt;" style="text;strokeColor=none;fillColor=none;align=left;verticalAlign=top;spacingLeft=4;spacingRight=4;overflow=hidden;rotatable=0;points=[[0,0.5],[1,0.5]];portConstraint=eastwest;whiteSpace=wrap;html=1;" vertex="1" parent="Q0QQ5eIorKA2mjUOSCse-54">
          <mxGeometry y="20" width="140" height="40" as="geometry" />
        </mxCell>
        <mxCell id="Q0QQ5eIorKA2mjUOSCse-86" style="edgeStyle=orthogonalEdgeStyle;rounded=0;orthogonalLoop=1;jettySize=auto;html=1;entryX=0.25;entryY=1;entryDx=0;entryDy=0;endArrow=block;endFill=0;" edge="1" parent="1" source="Q0QQ5eIorKA2mjUOSCse-59" target="Q0QQ5eIorKA2mjUOSCse-53">
          <mxGeometry relative="1" as="geometry" />
        </mxCell>
        <mxCell id="Q0QQ5eIorKA2mjUOSCse-59" value="HoldMethod" style="swimlane;fontStyle=0;childLayout=stackLayout;horizontal=1;startSize=26;fillColor=none;horizontalStack=0;resizeParent=1;resizeParentMax=0;resizeLast=0;collapsible=1;marginBottom=0;whiteSpace=wrap;html=1;" vertex="1" parent="1">
          <mxGeometry x="-170" y="122" width="140" height="52" as="geometry" />
        </mxCell>
        <mxCell id="Q0QQ5eIorKA2mjUOSCse-82" value="MailMethod" style="swimlane;fontStyle=0;childLayout=stackLayout;horizontal=1;startSize=20;fillColor=none;horizontalStack=0;resizeParent=1;resizeParentMax=0;resizeLast=0;collapsible=1;marginBottom=0;whiteSpace=wrap;html=1;" vertex="1" parent="1">
          <mxGeometry x="-170" y="290" width="140" height="60" as="geometry" />
        </mxCell>
        <mxCell id="Q0QQ5eIorKA2mjUOSCse-83" value="+ address: attribute" style="text;strokeColor=none;fillColor=none;align=left;verticalAlign=top;spacingLeft=4;spacingRight=4;overflow=hidden;rotatable=0;points=[[0,0.5],[1,0.5]];portConstraint=eastwest;whiteSpace=wrap;html=1;" vertex="1" parent="Q0QQ5eIorKA2mjUOSCse-82">
          <mxGeometry y="20" width="140" height="40" as="geometry" />
        </mxCell>
        <mxCell id="Q0QQ5eIorKA2mjUOSCse-87" style="edgeStyle=orthogonalEdgeStyle;rounded=0;orthogonalLoop=1;jettySize=auto;html=1;entryX=0.75;entryY=1;entryDx=0;entryDy=0;endArrow=block;endFill=0;" edge="1" parent="1" source="Q0QQ5eIorKA2mjUOSCse-83" target="Q0QQ5eIorKA2mjUOSCse-53">
          <mxGeometry relative="1" as="geometry" />
        </mxCell>
        <mxCell id="Q0QQ5eIorKA2mjUOSCse-90" value="NoAffiliation" style="swimlane;fontStyle=1;align=center;verticalAlign=top;childLayout=stackLayout;horizontal=1;startSize=26;horizontalStack=0;resizeParent=1;resizeParentMax=0;resizeLast=0;collapsible=1;marginBottom=0;whiteSpace=wrap;html=1;" vertex="1" parent="1">
          <mxGeometry x="770" y="-50" width="160" height="52" as="geometry" />
        </mxCell>
        <mxCell id="Q0QQ5eIorKA2mjUOSCse-94" value="UnionAffiliation" style="swimlane;fontStyle=1;align=center;verticalAlign=top;childLayout=stackLayout;horizontal=1;startSize=26;horizontalStack=0;resizeParent=1;resizeParentMax=0;resizeLast=0;collapsible=1;marginBottom=0;whiteSpace=wrap;html=1;" vertex="1" parent="1">
          <mxGeometry x="770" y="48" width="160" height="60" as="geometry" />
        </mxCell>
        <mxCell id="Q0QQ5eIorKA2mjUOSCse-95" value="+ dues: type" style="text;strokeColor=none;fillColor=none;align=left;verticalAlign=top;spacingLeft=4;spacingRight=4;overflow=hidden;rotatable=0;points=[[0,0.5],[1,0.5]];portConstraint=eastwest;whiteSpace=wrap;html=1;" vertex="1" parent="Q0QQ5eIorKA2mjUOSCse-94">
          <mxGeometry y="26" width="160" height="26" as="geometry" />
        </mxCell>
        <mxCell id="Q0QQ5eIorKA2mjUOSCse-96" value="" style="line;strokeWidth=1;fillColor=none;align=left;verticalAlign=middle;spacingTop=-1;spacingLeft=3;spacingRight=3;rotatable=0;labelPosition=right;points=[];portConstraint=eastwest;strokeColor=inherit;" vertex="1" parent="Q0QQ5eIorKA2mjUOSCse-94">
          <mxGeometry y="52" width="160" height="8" as="geometry" />
        </mxCell>
        <mxCell id="Q0QQ5eIorKA2mjUOSCse-100" value="&lt;p style=&quot;margin:0px;margin-top:4px;text-align:center;&quot;&gt;&lt;i&gt;&amp;lt;&amp;lt;Interface&amp;gt;&amp;gt;&lt;/i&gt;&lt;br&gt;&lt;b&gt;Affiliation&lt;/b&gt;&lt;/p&gt;&lt;hr size=&quot;1&quot; style=&quot;border-style:solid;&quot;&gt;&lt;p style=&quot;margin:0px;margin-left:4px;&quot;&gt;&lt;br&gt;&lt;/p&gt;&lt;hr size=&quot;1&quot; style=&quot;border-style:solid;&quot;&gt;&lt;p style=&quot;margin:0px;margin-left:4px;&quot;&gt;+ getFee&lt;br&gt;&lt;br&gt;&lt;/p&gt;" style="verticalAlign=top;align=left;overflow=fill;html=1;whiteSpace=wrap;" vertex="1" parent="1">
          <mxGeometry x="490" width="160" height="100" as="geometry" />
        </mxCell>
        <mxCell id="Q0QQ5eIorKA2mjUOSCse-101" value="ServiceCharge" style="swimlane;fontStyle=1;align=center;verticalAlign=top;childLayout=stackLayout;horizontal=1;startSize=26;horizontalStack=0;resizeParent=1;resizeParentMax=0;resizeLast=0;collapsible=1;marginBottom=0;whiteSpace=wrap;html=1;" vertex="1" parent="1">
          <mxGeometry x="1070" y="14" width="160" height="94" as="geometry" />
        </mxCell>
        <mxCell id="Q0QQ5eIorKA2mjUOSCse-102" value="+ date: type&lt;div&gt;+ amount: type&lt;br&gt;&lt;/div&gt;" style="text;strokeColor=none;fillColor=none;align=left;verticalAlign=top;spacingLeft=4;spacingRight=4;overflow=hidden;rotatable=0;points=[[0,0.5],[1,0.5]];portConstraint=eastwest;whiteSpace=wrap;html=1;" vertex="1" parent="Q0QQ5eIorKA2mjUOSCse-101">
          <mxGeometry y="26" width="160" height="34" as="geometry" />
        </mxCell>
        <mxCell id="Q0QQ5eIorKA2mjUOSCse-103" value="" style="line;strokeWidth=1;fillColor=none;align=left;verticalAlign=middle;spacingTop=-1;spacingLeft=3;spacingRight=3;rotatable=0;labelPosition=right;points=[];portConstraint=eastwest;strokeColor=inherit;" vertex="1" parent="Q0QQ5eIorKA2mjUOSCse-101">
          <mxGeometry y="60" width="160" height="8" as="geometry" />
        </mxCell>
        <mxCell id="Q0QQ5eIorKA2mjUOSCse-104" value="+ method(type): type" style="text;strokeColor=none;fillColor=none;align=left;verticalAlign=top;spacingLeft=4;spacingRight=4;overflow=hidden;rotatable=0;points=[[0,0.5],[1,0.5]];portConstraint=eastwest;whiteSpace=wrap;html=1;" vertex="1" parent="Q0QQ5eIorKA2mjUOSCse-101">
          <mxGeometry y="68" width="160" height="26" as="geometry" />
        </mxCell>
        <mxCell id="Q0QQ5eIorKA2mjUOSCse-105" style="edgeStyle=orthogonalEdgeStyle;rounded=0;orthogonalLoop=1;jettySize=auto;html=1;entryX=0.995;entryY=0.44;entryDx=0;entryDy=0;entryPerimeter=0;endArrow=block;endFill=0;" edge="1" parent="1" source="Q0QQ5eIorKA2mjUOSCse-90" target="Q0QQ5eIorKA2mjUOSCse-100">
          <mxGeometry relative="1" as="geometry" />
        </mxCell>
        <mxCell id="Q0QQ5eIorKA2mjUOSCse-106" style="edgeStyle=orthogonalEdgeStyle;rounded=0;orthogonalLoop=1;jettySize=auto;html=1;endArrow=block;endFill=0;" edge="1" parent="1" source="Q0QQ5eIorKA2mjUOSCse-95" target="Q0QQ5eIorKA2mjUOSCse-100">
          <mxGeometry relative="1" as="geometry" />
        </mxCell>
        <mxCell id="Q0QQ5eIorKA2mjUOSCse-109" style="edgeStyle=orthogonalEdgeStyle;rounded=0;orthogonalLoop=1;jettySize=auto;html=1;entryX=0;entryY=0.17;entryDx=0;entryDy=0;entryPerimeter=0;startArrow=diamondThin;startFill=1;endArrow=open;endFill=0;" edge="1" parent="1" source="Q0QQ5eIorKA2mjUOSCse-95" target="Q0QQ5eIorKA2mjUOSCse-101">
          <mxGeometry relative="1" as="geometry" />
        </mxCell>
        <mxCell id="Q0QQ5eIorKA2mjUOSCse-110" value="0..*" style="text;html=1;align=center;verticalAlign=middle;resizable=0;points=[];autosize=1;strokeColor=none;fillColor=none;" vertex="1" parent="1">
          <mxGeometry x="1020" y="30" width="40" height="30" as="geometry" />
        </mxCell>
        <mxCell id="Q0QQ5eIorKA2mjUOSCse-113" value="TimeCard" style="swimlane;fontStyle=1;align=center;verticalAlign=top;childLayout=stackLayout;horizontal=1;startSize=26;horizontalStack=0;resizeParent=1;resizeParentMax=0;resizeLast=0;collapsible=1;marginBottom=0;whiteSpace=wrap;html=1;" vertex="1" parent="1">
          <mxGeometry x="230" y="530" width="160" height="86" as="geometry" />
        </mxCell>
        <mxCell id="Q0QQ5eIorKA2mjUOSCse-117" value="+ date: string" style="text;strokeColor=none;fillColor=none;align=left;verticalAlign=top;spacingLeft=4;spacingRight=4;overflow=hidden;rotatable=0;points=[[0,0.5],[1,0.5]];portConstraint=eastwest;whiteSpace=wrap;html=1;" vertex="1" parent="Q0QQ5eIorKA2mjUOSCse-113">
          <mxGeometry y="26" width="160" height="26" as="geometry" />
        </mxCell>
        <mxCell id="Q0QQ5eIorKA2mjUOSCse-114" value="+ hours: number&lt;div&gt;&lt;br&gt;&lt;/div&gt;" style="text;strokeColor=none;fillColor=none;align=left;verticalAlign=top;spacingLeft=4;spacingRight=4;overflow=hidden;rotatable=0;points=[[0,0.5],[1,0.5]];portConstraint=eastwest;whiteSpace=wrap;html=1;" vertex="1" parent="Q0QQ5eIorKA2mjUOSCse-113">
          <mxGeometry y="52" width="160" height="26" as="geometry" />
        </mxCell>
        <mxCell id="Q0QQ5eIorKA2mjUOSCse-115" value="" style="line;strokeWidth=1;fillColor=none;align=left;verticalAlign=middle;spacingTop=-1;spacingLeft=3;spacingRight=3;rotatable=0;labelPosition=right;points=[];portConstraint=eastwest;strokeColor=inherit;" vertex="1" parent="Q0QQ5eIorKA2mjUOSCse-113">
          <mxGeometry y="78" width="160" height="8" as="geometry" />
        </mxCell>
        <mxCell id="Q0QQ5eIorKA2mjUOSCse-119" value="0..*" style="text;html=1;align=center;verticalAlign=middle;resizable=0;points=[];autosize=1;strokeColor=none;fillColor=none;" vertex="1" parent="1">
          <mxGeometry x="310" y="500" width="40" height="30" as="geometry" />
        </mxCell>
        <mxCell id="Q0QQ5eIorKA2mjUOSCse-120" value="SalesReceipt" style="swimlane;fontStyle=1;align=center;verticalAlign=top;childLayout=stackLayout;horizontal=1;startSize=26;horizontalStack=0;resizeParent=1;resizeParentMax=0;resizeLast=0;collapsible=1;marginBottom=0;whiteSpace=wrap;html=1;" vertex="1" parent="1">
          <mxGeometry x="450" y="550" width="160" height="86" as="geometry" />
        </mxCell>
        <mxCell id="Q0QQ5eIorKA2mjUOSCse-121" value="+ date: string" style="text;strokeColor=none;fillColor=none;align=left;verticalAlign=top;spacingLeft=4;spacingRight=4;overflow=hidden;rotatable=0;points=[[0,0.5],[1,0.5]];portConstraint=eastwest;whiteSpace=wrap;html=1;" vertex="1" parent="Q0QQ5eIorKA2mjUOSCse-120">
          <mxGeometry y="26" width="160" height="26" as="geometry" />
        </mxCell>
        <mxCell id="Q0QQ5eIorKA2mjUOSCse-122" value="+ amount: number&lt;div&gt;&lt;br&gt;&lt;/div&gt;" style="text;strokeColor=none;fillColor=none;align=left;verticalAlign=top;spacingLeft=4;spacingRight=4;overflow=hidden;rotatable=0;points=[[0,0.5],[1,0.5]];portConstraint=eastwest;whiteSpace=wrap;html=1;" vertex="1" parent="Q0QQ5eIorKA2mjUOSCse-120">
          <mxGeometry y="52" width="160" height="26" as="geometry" />
        </mxCell>
        <mxCell id="Q0QQ5eIorKA2mjUOSCse-123" value="" style="line;strokeWidth=1;fillColor=none;align=left;verticalAlign=middle;spacingTop=-1;spacingLeft=3;spacingRight=3;rotatable=0;labelPosition=right;points=[];portConstraint=eastwest;strokeColor=inherit;" vertex="1" parent="Q0QQ5eIorKA2mjUOSCse-120">
          <mxGeometry y="78" width="160" height="8" as="geometry" />
        </mxCell>
        <mxCell id="Q0QQ5eIorKA2mjUOSCse-125" style="edgeStyle=orthogonalEdgeStyle;rounded=0;orthogonalLoop=1;jettySize=auto;html=1;startArrow=diamondThin;startFill=1;endArrow=openThin;endFill=0;exitX=0.512;exitY=0.997;exitDx=0;exitDy=0;exitPerimeter=0;entryX=0.57;entryY=-0.057;entryDx=0;entryDy=0;entryPerimeter=0;" edge="1" parent="1" source="Q0QQ5eIorKA2mjUOSCse-16" target="Q0QQ5eIorKA2mjUOSCse-120">
          <mxGeometry relative="1" as="geometry">
            <mxPoint x="506" y="460" as="sourcePoint" />
            <mxPoint x="570" y="550" as="targetPoint" />
          </mxGeometry>
        </mxCell>
        <mxCell id="Q0QQ5eIorKA2mjUOSCse-126" value="0..*" style="text;html=1;align=center;verticalAlign=middle;resizable=0;points=[];autosize=1;strokeColor=none;fillColor=none;" vertex="1" parent="1">
          <mxGeometry x="550" y="520" width="40" height="30" as="geometry" />
        </mxCell>
        <mxCell id="Q0QQ5eIorKA2mjUOSCse-129" value="0..*" style="text;html=1;align=center;verticalAlign=middle;resizable=0;points=[];autosize=1;strokeColor=none;fillColor=none;" vertex="1" parent="1">
          <mxGeometry x="440" y="18" width="40" height="30" as="geometry" />
        </mxCell>
      </root>
    </mxGraphModel>
  </diagram>
</mxfile>
